%TF.GenerationSoftware,KiCad,Pcbnew,9.0.7-9.0.7~ubuntu24.04.1*%
%TF.CreationDate,2026-02-03T02:15:35+01:00*%
%TF.ProjectId,LaserDriver,4c617365-7244-4726-9976-65722e6b6963,rev?*%
%TF.SameCoordinates,Original*%
%TF.FileFunction,Copper,L1,Top*%
%TF.FilePolarity,Positive*%
%FSLAX46Y46*%
G04 Gerber Fmt 4.6, Leading zero omitted, Abs format (unit mm)*
G04 Created by KiCad (PCBNEW 9.0.7-9.0.7~ubuntu24.04.1) date 2026-02-03 02:15:35*
%MOMM*%
%LPD*%
G01*
G04 APERTURE LIST*
G04 Aperture macros list*
%AMRoundRect*
0 Rectangle with rounded corners*
0 $1 Rounding radius*
0 $2 $3 $4 $5 $6 $7 $8 $9 X,Y pos of 4 corners*
0 Add a 4 corners polygon primitive as box body*
4,1,4,$2,$3,$4,$5,$6,$7,$8,$9,$2,$3,0*
0 Add four circle primitives for the rounded corners*
1,1,$1+$1,$2,$3*
1,1,$1+$1,$4,$5*
1,1,$1+$1,$6,$7*
1,1,$1+$1,$8,$9*
0 Add four rect primitives between the rounded corners*
20,1,$1+$1,$2,$3,$4,$5,0*
20,1,$1+$1,$4,$5,$6,$7,0*
20,1,$1+$1,$6,$7,$8,$9,0*
20,1,$1+$1,$8,$9,$2,$3,0*%
G04 Aperture macros list end*
%TA.AperFunction,SMDPad,CuDef*%
%ADD10O,1.450000X0.249999*%
%TD*%
%TA.AperFunction,SMDPad,CuDef*%
%ADD11R,1.569999X1.879999*%
%TD*%
%TA.AperFunction,SMDPad,CuDef*%
%ADD12RoundRect,0.225000X-0.225000X-0.250000X0.225000X-0.250000X0.225000X0.250000X-0.225000X0.250000X0*%
%TD*%
%TA.AperFunction,SMDPad,CuDef*%
%ADD13RoundRect,0.075000X0.390000X0.275000X-0.390000X0.275000X-0.390000X-0.275000X0.390000X-0.275000X0*%
%TD*%
%TA.AperFunction,SMDPad,CuDef*%
%ADD14RoundRect,0.075000X0.075000X0.275000X-0.075000X0.275000X-0.075000X-0.275000X0.075000X-0.275000X0*%
%TD*%
%TA.AperFunction,SMDPad,CuDef*%
%ADD15RoundRect,0.200000X-0.200000X-0.275000X0.200000X-0.275000X0.200000X0.275000X-0.200000X0.275000X0*%
%TD*%
%TA.AperFunction,SMDPad,CuDef*%
%ADD16RoundRect,0.250000X1.425000X-0.362500X1.425000X0.362500X-1.425000X0.362500X-1.425000X-0.362500X0*%
%TD*%
%TA.AperFunction,SMDPad,CuDef*%
%ADD17RoundRect,0.075000X-0.390000X-0.275000X0.390000X-0.275000X0.390000X0.275000X-0.390000X0.275000X0*%
%TD*%
%TA.AperFunction,SMDPad,CuDef*%
%ADD18RoundRect,0.075000X-0.075000X-0.275000X0.075000X-0.275000X0.075000X0.275000X-0.075000X0.275000X0*%
%TD*%
%TA.AperFunction,SMDPad,CuDef*%
%ADD19RoundRect,0.200000X0.275000X-0.200000X0.275000X0.200000X-0.275000X0.200000X-0.275000X-0.200000X0*%
%TD*%
%TA.AperFunction,SMDPad,CuDef*%
%ADD20RoundRect,0.250000X0.475000X-0.250000X0.475000X0.250000X-0.475000X0.250000X-0.475000X-0.250000X0*%
%TD*%
%TA.AperFunction,SMDPad,CuDef*%
%ADD21RoundRect,0.200000X-0.275000X0.200000X-0.275000X-0.200000X0.275000X-0.200000X0.275000X0.200000X0*%
%TD*%
%TA.AperFunction,SMDPad,CuDef*%
%ADD22RoundRect,0.075000X-0.275000X0.390000X-0.275000X-0.390000X0.275000X-0.390000X0.275000X0.390000X0*%
%TD*%
%TA.AperFunction,SMDPad,CuDef*%
%ADD23RoundRect,0.075000X-0.275000X0.075000X-0.275000X-0.075000X0.275000X-0.075000X0.275000X0.075000X0*%
%TD*%
%TA.AperFunction,SMDPad,CuDef*%
%ADD24R,1.500000X2.200000*%
%TD*%
%TA.AperFunction,SMDPad,CuDef*%
%ADD25RoundRect,0.250000X-0.475000X0.250000X-0.475000X-0.250000X0.475000X-0.250000X0.475000X0.250000X0*%
%TD*%
%TA.AperFunction,ComponentPad*%
%ADD26RoundRect,0.250000X0.750000X0.750000X-0.750000X0.750000X-0.750000X-0.750000X0.750000X-0.750000X0*%
%TD*%
%TA.AperFunction,ComponentPad*%
%ADD27C,2.000000*%
%TD*%
%TA.AperFunction,ComponentPad*%
%ADD28R,1.700000X1.700000*%
%TD*%
%TA.AperFunction,ComponentPad*%
%ADD29C,1.700000*%
%TD*%
%TA.AperFunction,ComponentPad*%
%ADD30RoundRect,0.250000X0.750000X-0.750000X0.750000X0.750000X-0.750000X0.750000X-0.750000X-0.750000X0*%
%TD*%
%TA.AperFunction,SMDPad,CuDef*%
%ADD31RoundRect,0.250000X0.900000X-1.000000X0.900000X1.000000X-0.900000X1.000000X-0.900000X-1.000000X0*%
%TD*%
%TA.AperFunction,SMDPad,CuDef*%
%ADD32RoundRect,0.250000X0.650000X-0.325000X0.650000X0.325000X-0.650000X0.325000X-0.650000X-0.325000X0*%
%TD*%
%TA.AperFunction,ViaPad*%
%ADD33C,0.800000*%
%TD*%
%TA.AperFunction,ViaPad*%
%ADD34C,1.600000*%
%TD*%
%TA.AperFunction,Conductor*%
%ADD35C,0.700000*%
%TD*%
%TA.AperFunction,Conductor*%
%ADD36C,0.250000*%
%TD*%
%TA.AperFunction,Conductor*%
%ADD37C,0.350000*%
%TD*%
G04 APERTURE END LIST*
D10*
%TO.P,U100,1,BOOT*%
%TO.N,Net-(U100-BOOT)*%
X41417501Y-109384998D03*
%TO.P,U100,2,VIN*%
%TO.N,Net-(D100-K)*%
X41417501Y-109884997D03*
%TO.P,U100,3,UVLO*%
%TO.N,Net-(U100-UVLO)*%
X41417501Y-110384999D03*
%TO.P,U100,4,PDIM*%
%TO.N,/PWM*%
X41417501Y-110884998D03*
%TO.P,U100,5,RT_CLK*%
%TO.N,Net-(U100-RT_CLK)*%
X41417501Y-111385000D03*
%TO.P,U100,6,IADJ*%
%TO.N,/DAC*%
X45467501Y-111385000D03*
%TO.P,U100,7,ISENSE*%
%TO.N,Net-(U100-ISENSE)*%
X45467501Y-110884998D03*
%TO.P,U100,8,COMP*%
%TO.N,Net-(U100-COMP)*%
X45467501Y-110384999D03*
%TO.P,U100,9,GND*%
%TO.N,GND*%
X45467501Y-109884997D03*
%TO.P,U100,10,PH*%
%TO.N,Net-(D101-K)*%
X45467501Y-109384998D03*
D11*
%TO.P,U100,11,PAD*%
%TO.N,GND*%
X43442501Y-110384999D03*
%TD*%
D12*
%TO.P,C105,1*%
%TO.N,/DAC*%
X45225000Y-113250000D03*
%TO.P,C105,2*%
%TO.N,GND*%
X46775000Y-113250000D03*
%TD*%
D13*
%TO.P,D102,1,K*%
%TO.N,Net-(D102-K)*%
X65285000Y-110000000D03*
D14*
%TO.P,D102,2,A*%
%TO.N,GND*%
X64400000Y-110000000D03*
%TD*%
D15*
%TO.P,R111,1*%
%TO.N,Net-(D100-K)*%
X34142500Y-110425000D03*
%TO.P,R111,2*%
%TO.N,Net-(U100-UVLO)*%
X35792500Y-110425000D03*
%TD*%
D16*
%TO.P,R105,1*%
%TO.N,Net-(J101-Pin_1)*%
X53750000Y-115712500D03*
%TO.P,R105,2*%
%TO.N,GND*%
X53750000Y-109787500D03*
%TD*%
D17*
%TO.P,D103,1,K*%
%TO.N,/ard_PWM*%
X38715000Y-117250000D03*
D18*
%TO.P,D103,2,A*%
%TO.N,GND*%
X39600000Y-117250000D03*
%TD*%
D19*
%TO.P,R108,1*%
%TO.N,/intersection*%
X43250000Y-116575000D03*
%TO.P,R108,2*%
%TO.N,GND*%
X43250000Y-114925000D03*
%TD*%
D20*
%TO.P,C106,1*%
%TO.N,/intersection*%
X47000000Y-116950000D03*
%TO.P,C106,2*%
%TO.N,GND*%
X47000000Y-115050000D03*
%TD*%
D21*
%TO.P,R110,1*%
%TO.N,/PWM*%
X39675000Y-111460000D03*
%TO.P,R110,2*%
%TO.N,GND*%
X39675000Y-113110000D03*
%TD*%
D22*
%TO.P,D100,1,K*%
%TO.N,Net-(D100-K)*%
X31785000Y-106000000D03*
D23*
%TO.P,D100,2,A*%
%TO.N,GND*%
X31785000Y-106885000D03*
%TD*%
D21*
%TO.P,R109,1*%
%TO.N,/PWM*%
X37642500Y-111460000D03*
%TO.P,R109,2*%
%TO.N,/ard_PWM*%
X37642500Y-113110000D03*
%TD*%
D24*
%TO.P,L100,1,1*%
%TO.N,Net-(D101-K)*%
X49825000Y-104435000D03*
%TO.P,L100,2,2*%
%TO.N,Net-(D102-K)*%
X56225000Y-104435000D03*
%TD*%
D12*
%TO.P,C103,1*%
%TO.N,Net-(U100-BOOT)*%
X41275000Y-107785000D03*
%TO.P,C103,2*%
%TO.N,Net-(D101-K)*%
X42825000Y-107785000D03*
%TD*%
D25*
%TO.P,C104,1*%
%TO.N,Net-(D102-K)*%
X58500000Y-113300000D03*
%TO.P,C104,2*%
%TO.N,Net-(J101-Pin_1)*%
X58500000Y-115200000D03*
%TD*%
D19*
%TO.P,R106,1*%
%TO.N,/intersection*%
X45000000Y-116575000D03*
%TO.P,R106,2*%
%TO.N,/DAC*%
X45000000Y-114925000D03*
%TD*%
D15*
%TO.P,R103,1*%
%TO.N,Net-(U100-RT_CLK)*%
X41382500Y-113035000D03*
%TO.P,R103,2*%
%TO.N,GND*%
X43032500Y-113035000D03*
%TD*%
D26*
%TO.P,J100,1,Pin_1*%
%TO.N,GND*%
X39540000Y-101250000D03*
D27*
%TO.P,J100,2,Pin_2*%
%TO.N,Net-(J100-Pin_2)*%
X37000000Y-101250000D03*
%TO.P,J100,3,Pin_3*%
X34460000Y-101250000D03*
%TO.P,J100,4,Pin_4*%
%TO.N,Net-(D100-K)*%
X31920000Y-101250000D03*
%TD*%
D28*
%TO.P,J103,1,Pin_1*%
%TO.N,unconnected-(J103-Pin_1-Pad1)*%
X67240000Y-135240000D03*
D29*
%TO.P,J103,2,Pin_2*%
%TO.N,GND*%
X64700000Y-135240000D03*
%TO.P,J103,3,Pin_3*%
%TO.N,unconnected-(J103-Pin_3-Pad3)*%
X62160000Y-135240000D03*
%TO.P,J103,4,Pin_4*%
%TO.N,unconnected-(J103-Pin_4-Pad4)*%
X59620000Y-135240000D03*
%TO.P,J103,5,Pin_5*%
%TO.N,unconnected-(J103-Pin_5-Pad5)*%
X57080000Y-135240000D03*
%TO.P,J103,6,Pin_6*%
%TO.N,unconnected-(J103-Pin_6-Pad6)*%
X54540000Y-135240000D03*
%TO.P,J103,7,Pin_7*%
%TO.N,unconnected-(J103-Pin_7-Pad7)*%
X52000000Y-135240000D03*
%TO.P,J103,8,Pin_8*%
%TO.N,unconnected-(J103-Pin_8-Pad8)*%
X49460000Y-135240000D03*
%TO.P,J103,9,Pin_9*%
%TO.N,unconnected-(J103-Pin_9-Pad9)*%
X46920000Y-135240000D03*
%TO.P,J103,10,Pin_10*%
%TO.N,unconnected-(J103-Pin_10-Pad10)*%
X44380000Y-135240000D03*
%TO.P,J103,11,Pin_11*%
%TO.N,unconnected-(J103-Pin_11-Pad11)*%
X41840000Y-135240000D03*
%TO.P,J103,12,Pin_12*%
%TO.N,unconnected-(J103-Pin_12-Pad12)*%
X39300000Y-135240000D03*
%TO.P,J103,13,Pin_13*%
%TO.N,unconnected-(J103-Pin_13-Pad13)*%
X36760000Y-135240000D03*
%TO.P,J103,14,Pin_14*%
%TO.N,unconnected-(J103-Pin_14-Pad14)*%
X34220000Y-135240000D03*
%TO.P,J103,15,Pin_15*%
%TO.N,unconnected-(J103-Pin_15-Pad15)*%
X31680000Y-135240000D03*
%TD*%
D30*
%TO.P,J101,1,Pin_1*%
%TO.N,Net-(J101-Pin_1)*%
X65467500Y-115525000D03*
D27*
%TO.P,J101,2,Pin_2*%
%TO.N,Net-(D102-K)*%
X65467500Y-112985000D03*
%TD*%
D31*
%TO.P,D101,1,K*%
%TO.N,Net-(D101-K)*%
X46250000Y-106950000D03*
%TO.P,D101,2,A*%
%TO.N,GND*%
X46250000Y-102650000D03*
%TD*%
D12*
%TO.P,C102,1*%
%TO.N,Net-(U100-COMP)*%
X48475000Y-110000000D03*
%TO.P,C102,2*%
%TO.N,GND*%
X50025000Y-110000000D03*
%TD*%
D32*
%TO.P,C100,1*%
%TO.N,Net-(D100-K)*%
X39000000Y-108975000D03*
%TO.P,C100,2*%
%TO.N,GND*%
X39000000Y-106025000D03*
%TD*%
D15*
%TO.P,R112,1*%
%TO.N,GND*%
X34175000Y-112250000D03*
%TO.P,R112,2*%
%TO.N,Net-(U100-UVLO)*%
X35825000Y-112250000D03*
%TD*%
D28*
%TO.P,J102,1,Pin_1*%
%TO.N,unconnected-(J102-Pin_1-Pad1)*%
X67240000Y-120000000D03*
D29*
%TO.P,J102,2,Pin_2*%
%TO.N,unconnected-(J102-Pin_2-Pad2)*%
X64700000Y-120000000D03*
%TO.P,J102,3,Pin_3*%
%TO.N,unconnected-(J102-Pin_3-Pad3)*%
X62160000Y-120000000D03*
%TO.P,J102,4,Pin_4*%
%TO.N,GND*%
X59620000Y-120000000D03*
%TO.P,J102,5,Pin_5*%
%TO.N,unconnected-(J102-Pin_5-Pad5)*%
X57080000Y-120000000D03*
%TO.P,J102,6,Pin_6*%
%TO.N,unconnected-(J102-Pin_6-Pad6)*%
X54540000Y-120000000D03*
%TO.P,J102,7,Pin_7*%
%TO.N,unconnected-(J102-Pin_7-Pad7)*%
X52000000Y-120000000D03*
%TO.P,J102,8,Pin_8*%
%TO.N,/ard_DAC*%
X49460000Y-120000000D03*
%TO.P,J102,9,Pin_9*%
%TO.N,unconnected-(J102-Pin_9-Pad9)*%
X46920000Y-120000000D03*
%TO.P,J102,10,Pin_10*%
%TO.N,unconnected-(J102-Pin_10-Pad10)*%
X44380000Y-120000000D03*
%TO.P,J102,11,Pin_11*%
%TO.N,unconnected-(J102-Pin_11-Pad11)*%
X41840000Y-120000000D03*
%TO.P,J102,12,Pin_12*%
%TO.N,/ard_PWM*%
X39300000Y-120000000D03*
%TO.P,J102,13,Pin_13*%
%TO.N,unconnected-(J102-Pin_13-Pad13)*%
X36760000Y-120000000D03*
%TO.P,J102,14,Pin_14*%
%TO.N,unconnected-(J102-Pin_14-Pad14)*%
X34220000Y-120000000D03*
%TO.P,J102,15,Pin_15*%
%TO.N,unconnected-(J102-Pin_15-Pad15)*%
X31680000Y-120000000D03*
%TD*%
D15*
%TO.P,R104,1*%
%TO.N,Net-(U100-ISENSE)*%
X48425000Y-111625000D03*
%TO.P,R104,2*%
%TO.N,Net-(J101-Pin_1)*%
X50075000Y-111625000D03*
%TD*%
D17*
%TO.P,D104,1,K*%
%TO.N,/ard_DAC*%
X50115000Y-117250000D03*
D18*
%TO.P,D104,2,A*%
%TO.N,GND*%
X51000000Y-117250000D03*
%TD*%
D15*
%TO.P,R107,1*%
%TO.N,/intersection*%
X48925000Y-115500000D03*
%TO.P,R107,2*%
%TO.N,/ard_DAC*%
X50575000Y-115500000D03*
%TD*%
D33*
%TO.N,GND*%
X43850000Y-112150000D03*
X46951992Y-109451992D03*
D34*
X39300000Y-103700000D03*
D33*
X63250000Y-110000000D03*
D34*
X56700000Y-109750000D03*
X64700000Y-132900000D03*
D33*
X33100000Y-112300000D03*
X48000000Y-113175000D03*
D34*
X59625000Y-117500000D03*
D33*
X52000000Y-117250000D03*
X31800000Y-108050000D03*
X40750000Y-117250000D03*
X39700000Y-114500000D03*
D34*
X46300000Y-99675000D03*
D33*
X41850000Y-114950000D03*
%TD*%
D35*
%TO.N,Net-(J100-Pin_2)*%
X34460000Y-101250000D02*
X37000000Y-101250000D01*
%TO.N,GND*%
X43250000Y-114925000D02*
X41875000Y-114925000D01*
X41875000Y-114925000D02*
X41850000Y-114950000D01*
D36*
X46518987Y-109884997D02*
X46951992Y-109451992D01*
X45467501Y-109884997D02*
X46518987Y-109884997D01*
D37*
X47000000Y-113475000D02*
X46775000Y-113250000D01*
D36*
X31785000Y-108035000D02*
X31800000Y-108050000D01*
D35*
X46850000Y-113175000D02*
X46775000Y-113250000D01*
D37*
X50025000Y-110000000D02*
X50250000Y-110000000D01*
D35*
X48000000Y-113175000D02*
X46850000Y-113175000D01*
D37*
X47000000Y-115050000D02*
X47000000Y-115000000D01*
D35*
X39600000Y-101310000D02*
X39540000Y-101250000D01*
D36*
X51000000Y-117250000D02*
X52000000Y-117250000D01*
D35*
X56962500Y-109787500D02*
X57000000Y-109750000D01*
D36*
X64400000Y-110000000D02*
X63250000Y-110000000D01*
X43942503Y-109884997D02*
X43442501Y-110384999D01*
D35*
X33150000Y-112250000D02*
X33100000Y-112300000D01*
X39675000Y-113110000D02*
X39675000Y-114475000D01*
D36*
X39600000Y-117250000D02*
X40750000Y-117250000D01*
X31785000Y-106885000D02*
X31785000Y-108035000D01*
D35*
X34175000Y-112250000D02*
X33150000Y-112250000D01*
X39675000Y-114475000D02*
X39700000Y-114500000D01*
D37*
X39675000Y-114425000D02*
X39750000Y-114500000D01*
%TO.N,/ard_DAC*%
X50115000Y-117250000D02*
X50115000Y-115960000D01*
X50115000Y-115960000D02*
X50575000Y-115500000D01*
%TO.N,/ard_PWM*%
X37642500Y-116177500D02*
X38715000Y-117250000D01*
D35*
X39300000Y-120000000D02*
X38715000Y-119415000D01*
D37*
X37642500Y-113110000D02*
X37642500Y-116177500D01*
D35*
X38715000Y-119415000D02*
X38715000Y-117250000D01*
%TO.N,Net-(D101-K)*%
X43660000Y-106950000D02*
X42825000Y-107785000D01*
X46250000Y-106950000D02*
X46000000Y-107200000D01*
X46000000Y-108626498D02*
X45467501Y-109158997D01*
X47310000Y-106950000D02*
X46250000Y-106950000D01*
X46000000Y-107200000D02*
X46000000Y-108626498D01*
X49825000Y-104435000D02*
X47310000Y-106950000D01*
X46250000Y-106950000D02*
X43660000Y-106950000D01*
D36*
%TO.N,Net-(U100-COMP)*%
X47115001Y-110384999D02*
X47500000Y-110000000D01*
X47500000Y-110000000D02*
X48475000Y-110000000D01*
X45467501Y-110384999D02*
X47115001Y-110384999D01*
%TO.N,Net-(D100-K)*%
X40522497Y-109884997D02*
X39612500Y-108975000D01*
D35*
X31785000Y-106000000D02*
X31785000Y-101385000D01*
X34000000Y-106000000D02*
X36975000Y-108975000D01*
D36*
X39612500Y-108975000D02*
X39000000Y-108975000D01*
D35*
X31785000Y-101385000D02*
X31920000Y-101250000D01*
D36*
X41417501Y-109884997D02*
X40522497Y-109884997D01*
D37*
X34142500Y-107642500D02*
X32500000Y-106000000D01*
X32500000Y-106000000D02*
X31785000Y-106000000D01*
D35*
X31785000Y-106000000D02*
X34000000Y-106000000D01*
X36975000Y-108975000D02*
X39000000Y-108975000D01*
D37*
X34142500Y-110425000D02*
X34142500Y-107642500D01*
D36*
%TO.N,Net-(U100-BOOT)*%
X41417501Y-107927501D02*
X41275000Y-107785000D01*
X41275000Y-107785000D02*
X41275000Y-109242497D01*
D35*
%TO.N,Net-(J101-Pin_1)*%
X58500000Y-115200000D02*
X56800000Y-115200000D01*
X65467500Y-115525000D02*
X61025000Y-115525000D01*
X53750000Y-115712500D02*
X53327500Y-115712500D01*
X56800000Y-115200000D02*
X56250000Y-115750000D01*
X61025000Y-115525000D02*
X60750000Y-115250000D01*
X53750000Y-115712500D02*
X53750000Y-115300000D01*
X53750000Y-115300000D02*
X50075000Y-111625000D01*
X56250000Y-115750000D02*
X53787500Y-115750000D01*
X58550000Y-115250000D02*
X58500000Y-115200000D01*
X60750000Y-115250000D02*
X58550000Y-115250000D01*
%TO.N,Net-(D102-K)*%
X65285000Y-112802500D02*
X65467500Y-112985000D01*
X65285000Y-109576914D02*
X65285000Y-110000000D01*
X56225000Y-104435000D02*
X60143086Y-104435000D01*
X61015000Y-112985000D02*
X60750000Y-113250000D01*
X60143086Y-104435000D02*
X65285000Y-109576914D01*
X65467500Y-112985000D02*
X61015000Y-112985000D01*
X60750000Y-113250000D02*
X58550000Y-113250000D01*
X65285000Y-110000000D02*
X65285000Y-112802500D01*
X58550000Y-113250000D02*
X58500000Y-113300000D01*
D36*
%TO.N,/DAC*%
X45467501Y-111385000D02*
X45467501Y-113007499D01*
D37*
X45000000Y-113475000D02*
X45225000Y-113250000D01*
D36*
X45467501Y-113007499D02*
X45225000Y-113250000D01*
%TO.N,Net-(U100-RT_CLK)*%
X41382500Y-111420001D02*
X41417501Y-111385000D01*
X41382500Y-113035000D02*
X41382500Y-111420001D01*
%TO.N,Net-(U100-ISENSE)*%
X47825000Y-111625000D02*
X48425000Y-111625000D01*
X45467501Y-110884998D02*
X47084998Y-110884998D01*
X47084998Y-110884998D02*
X47825000Y-111625000D01*
%TO.N,/PWM*%
X41417501Y-110884998D02*
X40250002Y-110884998D01*
D37*
X37642500Y-111460000D02*
X39675000Y-111460000D01*
D36*
X40250002Y-110884998D02*
X39675000Y-111460000D01*
D37*
%TO.N,Net-(U100-UVLO)*%
X35792500Y-110425000D02*
X35792500Y-112217500D01*
X35792500Y-110425000D02*
X39930768Y-110425000D01*
X35792500Y-112217500D02*
X35825000Y-112250000D01*
D36*
X41417501Y-110384999D02*
X39900059Y-110384999D01*
%TD*%
%TA.AperFunction,Conductor*%
%TO.N,GND*%
G36*
X46777665Y-99169685D02*
G01*
X46823420Y-99222489D01*
X46828263Y-99234788D01*
X47493637Y-101230911D01*
X47500000Y-101270123D01*
X47500000Y-103876000D01*
X47480315Y-103943039D01*
X47427511Y-103988794D01*
X47376000Y-104000000D01*
X45124000Y-104000000D01*
X45056961Y-103980315D01*
X45011206Y-103927511D01*
X45000000Y-103876000D01*
X45000000Y-101271478D01*
X45007224Y-101229772D01*
X45719719Y-99234788D01*
X45720609Y-99232293D01*
X45761695Y-99175781D01*
X45826811Y-99150452D01*
X45837385Y-99150000D01*
X46710626Y-99150000D01*
X46777665Y-99169685D01*
G37*
%TD.AperFunction*%
%TD*%
%TA.AperFunction,Conductor*%
%TO.N,GND*%
G36*
X40543039Y-100219685D02*
G01*
X40588794Y-100272489D01*
X40600000Y-100324000D01*
X40600000Y-102286172D01*
X40596955Y-102313484D01*
X39900000Y-105399997D01*
X39900000Y-106476000D01*
X39880315Y-106543039D01*
X39827511Y-106588794D01*
X39776000Y-106600000D01*
X38224000Y-106600000D01*
X38156961Y-106580315D01*
X38111206Y-106527511D01*
X38100000Y-106476000D01*
X38100000Y-105407963D01*
X38101020Y-105392095D01*
X38499999Y-102300007D01*
X38500000Y-102300005D01*
X38500000Y-100324000D01*
X38519685Y-100256961D01*
X38572489Y-100211206D01*
X38624000Y-100200000D01*
X40476000Y-100200000D01*
X40543039Y-100219685D01*
G37*
%TD.AperFunction*%
%TD*%
%TA.AperFunction,Conductor*%
%TO.N,GND*%
G36*
X47243039Y-112719685D02*
G01*
X47288794Y-112772489D01*
X47300000Y-112824000D01*
X47300000Y-113800000D01*
X47776903Y-114467664D01*
X47799851Y-114533658D01*
X47800000Y-114539738D01*
X47800000Y-115344170D01*
X47795530Y-115360306D01*
X47795996Y-115375426D01*
X47782329Y-115407967D01*
X47741510Y-115476000D01*
X47710604Y-115527511D01*
X47703232Y-115539797D01*
X47651862Y-115587155D01*
X47596903Y-115600000D01*
X46324000Y-115600000D01*
X46256961Y-115580315D01*
X46211206Y-115527511D01*
X46200000Y-115476000D01*
X46200000Y-114508813D01*
X46201246Y-114491277D01*
X46300000Y-113799998D01*
X46300000Y-112824000D01*
X46319685Y-112756961D01*
X46372489Y-112711206D01*
X46424000Y-112700000D01*
X47176000Y-112700000D01*
X47243039Y-112719685D01*
G37*
%TD.AperFunction*%
%TD*%
%TA.AperFunction,Conductor*%
%TO.N,GND*%
G36*
X65165383Y-132419685D02*
G01*
X65211138Y-132472489D01*
X65219936Y-132499682D01*
X65597592Y-134387960D01*
X65600000Y-134412278D01*
X65600000Y-135976000D01*
X65580315Y-136043039D01*
X65527511Y-136088794D01*
X65476000Y-136100000D01*
X63924000Y-136100000D01*
X63856961Y-136080315D01*
X63811206Y-136027511D01*
X63800000Y-135976000D01*
X63800000Y-134415266D01*
X63803702Y-134385192D01*
X64276518Y-132493924D01*
X64311875Y-132433662D01*
X64374199Y-132402080D01*
X64396816Y-132400000D01*
X65098344Y-132400000D01*
X65165383Y-132419685D01*
G37*
%TD.AperFunction*%
%TD*%
%TA.AperFunction,Conductor*%
%TO.N,/intersection*%
G36*
X49443039Y-115019685D02*
G01*
X49488794Y-115072489D01*
X49500000Y-115124000D01*
X49500000Y-115942968D01*
X49480315Y-116010007D01*
X49456698Y-116037116D01*
X47784827Y-117470148D01*
X47721116Y-117498831D01*
X47704129Y-117500000D01*
X46287544Y-117500000D01*
X46220505Y-117480315D01*
X46218761Y-117479174D01*
X45500000Y-117000000D01*
X42874000Y-117000000D01*
X42806961Y-116980315D01*
X42761206Y-116927511D01*
X42750000Y-116876000D01*
X42750000Y-116124000D01*
X42769685Y-116056961D01*
X42822489Y-116011206D01*
X42874000Y-116000000D01*
X45479877Y-116000000D01*
X45519089Y-116006363D01*
X46250000Y-116250000D01*
X47750000Y-116250000D01*
X47750001Y-116250000D01*
X47750000Y-116249999D01*
X48463878Y-115060202D01*
X48515249Y-115012844D01*
X48570207Y-115000000D01*
X49376000Y-115000000D01*
X49443039Y-115019685D01*
G37*
%TD.AperFunction*%
%TD*%
%TA.AperFunction,Conductor*%
%TO.N,/ard_DAC*%
G36*
X50392539Y-117019685D02*
G01*
X50438294Y-117072489D01*
X50449500Y-117124000D01*
X50449500Y-117464704D01*
X50448794Y-117477914D01*
X50200914Y-119791460D01*
X50197918Y-119808324D01*
X50023482Y-120506074D01*
X49988126Y-120566338D01*
X49925801Y-120597920D01*
X49903184Y-120600000D01*
X48996816Y-120600000D01*
X48929777Y-120580315D01*
X48884022Y-120527511D01*
X48876518Y-120506074D01*
X48709622Y-119838488D01*
X48712460Y-119768676D01*
X48714507Y-119763073D01*
X49612248Y-117477914D01*
X49769098Y-117078658D01*
X49811932Y-117023460D01*
X49877810Y-117000181D01*
X49884511Y-117000000D01*
X50325500Y-117000000D01*
X50392539Y-117019685D01*
G37*
%TD.AperFunction*%
%TD*%
%TA.AperFunction,Conductor*%
%TO.N,GND*%
G36*
X57043039Y-109119685D02*
G01*
X57088794Y-109172489D01*
X57100000Y-109224000D01*
X57100000Y-110277621D01*
X57080315Y-110344660D01*
X57027511Y-110390415D01*
X56977631Y-110401610D01*
X49625631Y-110498346D01*
X49558339Y-110479545D01*
X49511893Y-110427348D01*
X49500000Y-110374357D01*
X49500000Y-109624000D01*
X49519685Y-109556961D01*
X49572489Y-109511206D01*
X49624000Y-109500000D01*
X50500002Y-109500000D01*
X51984299Y-109104187D01*
X52016249Y-109100000D01*
X56976000Y-109100000D01*
X57043039Y-109119685D01*
G37*
%TD.AperFunction*%
%TD*%
%TA.AperFunction,Conductor*%
%TO.N,/DAC*%
G36*
X45693039Y-112769685D02*
G01*
X45738794Y-112822489D01*
X45750000Y-112874000D01*
X45750000Y-113778521D01*
X45742776Y-113820227D01*
X45500000Y-114500000D01*
X45500000Y-115126000D01*
X45480315Y-115193039D01*
X45427511Y-115238794D01*
X45376000Y-115250000D01*
X44624000Y-115250000D01*
X44556961Y-115230315D01*
X44511206Y-115177511D01*
X44500000Y-115126000D01*
X44500000Y-114521478D01*
X44507224Y-114479772D01*
X44750000Y-113799999D01*
X44750000Y-112874000D01*
X44769685Y-112806961D01*
X44822489Y-112761206D01*
X44874000Y-112750000D01*
X45626000Y-112750000D01*
X45693039Y-112769685D01*
G37*
%TD.AperFunction*%
%TD*%
%TA.AperFunction,Conductor*%
%TO.N,GND*%
G36*
X60207922Y-117069685D02*
G01*
X60253677Y-117122489D01*
X60263876Y-117158232D01*
X60498993Y-118992145D01*
X60500000Y-119007913D01*
X60500000Y-120876000D01*
X60480315Y-120943039D01*
X60427511Y-120988794D01*
X60376000Y-121000000D01*
X58874000Y-121000000D01*
X58806961Y-120980315D01*
X58761206Y-120927511D01*
X58750000Y-120876000D01*
X58750000Y-119007913D01*
X58751007Y-118992145D01*
X58986124Y-117158232D01*
X59014173Y-117094240D01*
X59072367Y-117055571D01*
X59109117Y-117050000D01*
X60140883Y-117050000D01*
X60207922Y-117069685D01*
G37*
%TD.AperFunction*%
%TD*%
%TA.AperFunction,Conductor*%
%TO.N,GND*%
G36*
X44118935Y-111169685D02*
G01*
X44164690Y-111222489D01*
X44174634Y-111291647D01*
X44173965Y-111295798D01*
X43950001Y-112549992D01*
X43850031Y-113549681D01*
X43849965Y-113550323D01*
X43750000Y-114500003D01*
X43750000Y-115226000D01*
X43730315Y-115293039D01*
X43677511Y-115338794D01*
X43626000Y-115350000D01*
X42874000Y-115350000D01*
X42806961Y-115330315D01*
X42761206Y-115277511D01*
X42750000Y-115226000D01*
X42750000Y-114450001D01*
X42750000Y-114450000D01*
X42651290Y-113857745D01*
X42649697Y-113842144D01*
X42600261Y-112556793D01*
X42600483Y-112543228D01*
X42691774Y-111265165D01*
X42716185Y-111199699D01*
X42772115Y-111157822D01*
X42815459Y-111150000D01*
X44051896Y-111150000D01*
X44118935Y-111169685D01*
G37*
%TD.AperFunction*%
%TD*%
M02*
