%TF.GenerationSoftware,KiCad,Pcbnew,9.0.7-9.0.7~ubuntu24.04.1*%
%TF.CreationDate,2026-02-03T02:15:35+01:00*%
%TF.ProjectId,LaserDriver,4c617365-7244-4726-9976-65722e6b6963,rev?*%
%TF.SameCoordinates,Original*%
%TF.FileFunction,Soldermask,Top*%
%TF.FilePolarity,Negative*%
%FSLAX46Y46*%
G04 Gerber Fmt 4.6, Leading zero omitted, Abs format (unit mm)*
G04 Created by KiCad (PCBNEW 9.0.7-9.0.7~ubuntu24.04.1) date 2026-02-03 02:15:35*
%MOMM*%
%LPD*%
G01*
G04 APERTURE LIST*
G04 Aperture macros list*
%AMRoundRect*
0 Rectangle with rounded corners*
0 $1 Rounding radius*
0 $2 $3 $4 $5 $6 $7 $8 $9 X,Y pos of 4 corners*
0 Add a 4 corners polygon primitive as box body*
4,1,4,$2,$3,$4,$5,$6,$7,$8,$9,$2,$3,0*
0 Add four circle primitives for the rounded corners*
1,1,$1+$1,$2,$3*
1,1,$1+$1,$4,$5*
1,1,$1+$1,$6,$7*
1,1,$1+$1,$8,$9*
0 Add four rect primitives between the rounded corners*
20,1,$1+$1,$2,$3,$4,$5,0*
20,1,$1+$1,$4,$5,$6,$7,0*
20,1,$1+$1,$6,$7,$8,$9,0*
20,1,$1+$1,$8,$9,$2,$3,0*%
G04 Aperture macros list end*
%ADD10O,1.450000X0.249999*%
%ADD11R,1.569999X1.879999*%
%ADD12RoundRect,0.225000X-0.225000X-0.250000X0.225000X-0.250000X0.225000X0.250000X-0.225000X0.250000X0*%
%ADD13RoundRect,0.075000X0.390000X0.275000X-0.390000X0.275000X-0.390000X-0.275000X0.390000X-0.275000X0*%
%ADD14RoundRect,0.075000X0.075000X0.275000X-0.075000X0.275000X-0.075000X-0.275000X0.075000X-0.275000X0*%
%ADD15C,3.200000*%
%ADD16RoundRect,0.200000X-0.200000X-0.275000X0.200000X-0.275000X0.200000X0.275000X-0.200000X0.275000X0*%
%ADD17RoundRect,0.250000X1.425000X-0.362500X1.425000X0.362500X-1.425000X0.362500X-1.425000X-0.362500X0*%
%ADD18RoundRect,0.075000X-0.390000X-0.275000X0.390000X-0.275000X0.390000X0.275000X-0.390000X0.275000X0*%
%ADD19RoundRect,0.075000X-0.075000X-0.275000X0.075000X-0.275000X0.075000X0.275000X-0.075000X0.275000X0*%
%ADD20RoundRect,0.200000X0.275000X-0.200000X0.275000X0.200000X-0.275000X0.200000X-0.275000X-0.200000X0*%
%ADD21RoundRect,0.250000X0.475000X-0.250000X0.475000X0.250000X-0.475000X0.250000X-0.475000X-0.250000X0*%
%ADD22RoundRect,0.200000X-0.275000X0.200000X-0.275000X-0.200000X0.275000X-0.200000X0.275000X0.200000X0*%
%ADD23RoundRect,0.075000X-0.275000X0.390000X-0.275000X-0.390000X0.275000X-0.390000X0.275000X0.390000X0*%
%ADD24RoundRect,0.075000X-0.275000X0.075000X-0.275000X-0.075000X0.275000X-0.075000X0.275000X0.075000X0*%
%ADD25R,1.500000X2.200000*%
%ADD26RoundRect,0.250000X-0.475000X0.250000X-0.475000X-0.250000X0.475000X-0.250000X0.475000X0.250000X0*%
%ADD27RoundRect,0.250000X0.750000X0.750000X-0.750000X0.750000X-0.750000X-0.750000X0.750000X-0.750000X0*%
%ADD28C,2.000000*%
%ADD29R,1.700000X1.700000*%
%ADD30C,1.700000*%
%ADD31RoundRect,0.250000X0.750000X-0.750000X0.750000X0.750000X-0.750000X0.750000X-0.750000X-0.750000X0*%
%ADD32RoundRect,0.250000X0.900000X-1.000000X0.900000X1.000000X-0.900000X1.000000X-0.900000X-1.000000X0*%
%ADD33RoundRect,0.250000X0.650000X-0.325000X0.650000X0.325000X-0.650000X0.325000X-0.650000X-0.325000X0*%
G04 APERTURE END LIST*
D10*
%TO.C,U100*%
X41417501Y-109384998D03*
X41417501Y-109884997D03*
X41417501Y-110384999D03*
X41417501Y-110884998D03*
X41417501Y-111385000D03*
X45467501Y-111385000D03*
X45467501Y-110884998D03*
X45467501Y-110384999D03*
X45467501Y-109884997D03*
X45467501Y-109384998D03*
D11*
X43442501Y-110384999D03*
%TD*%
D12*
%TO.C,C105*%
X45225000Y-113250000D03*
X46775000Y-113250000D03*
%TD*%
D13*
%TO.C,D102*%
X65285000Y-110000000D03*
D14*
X64400000Y-110000000D03*
%TD*%
D15*
%TO.C,H3*%
X64000000Y-128000000D03*
%TD*%
D16*
%TO.C,R111*%
X34142500Y-110425000D03*
X35792500Y-110425000D03*
%TD*%
D17*
%TO.C,R105*%
X53750000Y-115712500D03*
X53750000Y-109787500D03*
%TD*%
D18*
%TO.C,D103*%
X38715000Y-117250000D03*
D19*
X39600000Y-117250000D03*
%TD*%
D20*
%TO.C,R108*%
X43250000Y-116575000D03*
X43250000Y-114925000D03*
%TD*%
D21*
%TO.C,C106*%
X47000000Y-116950000D03*
X47000000Y-115050000D03*
%TD*%
D22*
%TO.C,R110*%
X39675000Y-111460000D03*
X39675000Y-113110000D03*
%TD*%
D23*
%TO.C,D100*%
X31785000Y-106000000D03*
D24*
X31785000Y-106885000D03*
%TD*%
D22*
%TO.C,R109*%
X37642500Y-111460000D03*
X37642500Y-113110000D03*
%TD*%
D25*
%TO.C,L100*%
X49825000Y-104435000D03*
X56225000Y-104435000D03*
%TD*%
D15*
%TO.C,H1*%
X35000000Y-128000000D03*
%TD*%
D12*
%TO.C,C103*%
X41275000Y-107785000D03*
X42825000Y-107785000D03*
%TD*%
D26*
%TO.C,C104*%
X58500000Y-113300000D03*
X58500000Y-115200000D03*
%TD*%
D20*
%TO.C,R106*%
X45000000Y-116575000D03*
X45000000Y-114925000D03*
%TD*%
D16*
%TO.C,R103*%
X41382500Y-113035000D03*
X43032500Y-113035000D03*
%TD*%
D27*
%TO.C,J100*%
X39540000Y-101250000D03*
D28*
X37000000Y-101250000D03*
X34460000Y-101250000D03*
X31920000Y-101250000D03*
%TD*%
D15*
%TO.C,H2*%
X64000000Y-102250000D03*
%TD*%
D29*
%TO.C,J103*%
X67240000Y-135240000D03*
D30*
X64700000Y-135240000D03*
X62160000Y-135240000D03*
X59620000Y-135240000D03*
X57080000Y-135240000D03*
X54540000Y-135240000D03*
X52000000Y-135240000D03*
X49460000Y-135240000D03*
X46920000Y-135240000D03*
X44380000Y-135240000D03*
X41840000Y-135240000D03*
X39300000Y-135240000D03*
X36760000Y-135240000D03*
X34220000Y-135240000D03*
X31680000Y-135240000D03*
%TD*%
D31*
%TO.C,J101*%
X65467500Y-115525000D03*
D28*
X65467500Y-112985000D03*
%TD*%
D32*
%TO.C,D101*%
X46250000Y-106950000D03*
X46250000Y-102650000D03*
%TD*%
D12*
%TO.C,C102*%
X48475000Y-110000000D03*
X50025000Y-110000000D03*
%TD*%
D33*
%TO.C,C100*%
X39000000Y-108975000D03*
X39000000Y-106025000D03*
%TD*%
D16*
%TO.C,R112*%
X34175000Y-112250000D03*
X35825000Y-112250000D03*
%TD*%
D29*
%TO.C,J102*%
X67240000Y-120000000D03*
D30*
X64700000Y-120000000D03*
X62160000Y-120000000D03*
X59620000Y-120000000D03*
X57080000Y-120000000D03*
X54540000Y-120000000D03*
X52000000Y-120000000D03*
X49460000Y-120000000D03*
X46920000Y-120000000D03*
X44380000Y-120000000D03*
X41840000Y-120000000D03*
X39300000Y-120000000D03*
X36760000Y-120000000D03*
X34220000Y-120000000D03*
X31680000Y-120000000D03*
%TD*%
D16*
%TO.C,R104*%
X48425000Y-111625000D03*
X50075000Y-111625000D03*
%TD*%
D18*
%TO.C,D104*%
X50115000Y-117250000D03*
D19*
X51000000Y-117250000D03*
%TD*%
D16*
%TO.C,R107*%
X48925000Y-115500000D03*
X50575000Y-115500000D03*
%TD*%
M02*
