%TF.GenerationSoftware,KiCad,Pcbnew,9.0.7-9.0.7~ubuntu24.04.1*%
%TF.CreationDate,2026-02-05T17:20:45+01:00*%
%TF.ProjectId,LaserDriver,4c617365-7244-4726-9976-65722e6b6963,rev?*%
%TF.SameCoordinates,Original*%
%TF.FileFunction,Legend,Top*%
%TF.FilePolarity,Positive*%
%FSLAX46Y46*%
G04 Gerber Fmt 4.6, Leading zero omitted, Abs format (unit mm)*
G04 Created by KiCad (PCBNEW 9.0.7-9.0.7~ubuntu24.04.1) date 2026-02-05 17:20:45*
%MOMM*%
%LPD*%
G01*
G04 APERTURE LIST*
%ADD10C,0.100000*%
%ADD11C,0.300000*%
%ADD12C,0.120000*%
%ADD13C,0.200000*%
%ADD14C,0.000000*%
G04 APERTURE END LIST*
D10*
X67465545Y-102200000D02*
G75*
G02*
X60534455Y-102200000I-3465545J0D01*
G01*
X60534455Y-102200000D02*
G75*
G02*
X67465545Y-102200000I3465545J0D01*
G01*
X38400000Y-128000000D02*
G75*
G02*
X31600000Y-128000000I-3400000J0D01*
G01*
X31600000Y-128000000D02*
G75*
G02*
X38400000Y-128000000I3400000J0D01*
G01*
X67417601Y-128000000D02*
G75*
G02*
X60582399Y-128000000I-3417601J0D01*
G01*
X60582399Y-128000000D02*
G75*
G02*
X67417601Y-128000000I3417601J0D01*
G01*
D11*
G36*
X45613422Y-131188336D02*
G01*
X45682670Y-131206924D01*
X45747493Y-131237794D01*
X45806338Y-131279328D01*
X45856140Y-131328850D01*
X45897610Y-131386996D01*
X45928453Y-131451175D01*
X45947053Y-131520045D01*
X45953389Y-131594816D01*
X45953389Y-132236320D01*
X45947082Y-132309747D01*
X45928511Y-132377807D01*
X45897610Y-132441667D01*
X45856153Y-132499432D01*
X45806354Y-132548591D01*
X45747493Y-132589770D01*
X45682701Y-132620326D01*
X45613449Y-132638736D01*
X45538573Y-132645000D01*
X44760965Y-132645000D01*
X44760965Y-132422891D01*
X44983073Y-132422891D01*
X45538573Y-132422891D01*
X45590173Y-132416622D01*
X45635407Y-132398315D01*
X45675868Y-132367479D01*
X45707435Y-132327602D01*
X45726039Y-132283366D01*
X45732380Y-132233206D01*
X45732380Y-131594816D01*
X45726023Y-131544035D01*
X45707401Y-131499348D01*
X45675868Y-131459170D01*
X45635362Y-131427951D01*
X45590130Y-131409447D01*
X45538573Y-131403116D01*
X44983073Y-131403116D01*
X44983073Y-132422891D01*
X44760965Y-132422891D01*
X44760965Y-131182015D01*
X45538573Y-131182015D01*
X45613422Y-131188336D01*
G37*
G36*
X46194274Y-131594816D02*
G01*
X46200704Y-131520089D01*
X46219597Y-131451194D01*
X46250969Y-131386905D01*
X46293113Y-131328753D01*
X46343441Y-131279259D01*
X46402643Y-131237794D01*
X46467888Y-131206939D01*
X46537683Y-131188344D01*
X46613211Y-131182015D01*
X47379462Y-131182015D01*
X47379462Y-131403116D01*
X46613211Y-131403116D01*
X46560895Y-131409455D01*
X46514961Y-131427973D01*
X46473810Y-131459170D01*
X46441663Y-131499474D01*
X46422738Y-131544160D01*
X46416290Y-131594816D01*
X46416290Y-132236320D01*
X46422673Y-132284946D01*
X46441528Y-132328316D01*
X46473810Y-132367937D01*
X46514883Y-132398478D01*
X46560822Y-132416658D01*
X46613211Y-132422891D01*
X47379462Y-132422891D01*
X47379462Y-132645000D01*
X46613211Y-132645000D01*
X46537630Y-132638787D01*
X46467827Y-132620545D01*
X46402643Y-132590320D01*
X46343404Y-132549509D01*
X46293084Y-132500711D01*
X46250969Y-132443316D01*
X46219521Y-132379708D01*
X46200667Y-132312109D01*
X46194274Y-132239343D01*
X46194274Y-131594816D01*
G37*
G36*
X47609905Y-131594816D02*
G01*
X47616336Y-131520089D01*
X47635228Y-131451194D01*
X47666600Y-131386905D01*
X47708745Y-131328753D01*
X47759073Y-131279259D01*
X47818275Y-131237794D01*
X47883520Y-131206939D01*
X47953315Y-131188344D01*
X48028843Y-131182015D01*
X48795094Y-131182015D01*
X48795094Y-131403116D01*
X48028843Y-131403116D01*
X47976527Y-131409455D01*
X47930592Y-131427973D01*
X47889441Y-131459170D01*
X47857295Y-131499474D01*
X47838369Y-131544160D01*
X47831922Y-131594816D01*
X47831922Y-132236320D01*
X47838305Y-132284946D01*
X47857160Y-132328316D01*
X47889441Y-132367937D01*
X47930515Y-132398478D01*
X47976454Y-132416658D01*
X48028843Y-132422891D01*
X48795094Y-132422891D01*
X48795094Y-132645000D01*
X48028843Y-132645000D01*
X47953262Y-132638787D01*
X47883459Y-132620545D01*
X47818275Y-132590320D01*
X47759036Y-132549509D01*
X47708716Y-132500711D01*
X47666600Y-132443316D01*
X47635152Y-132379708D01*
X47616299Y-132312109D01*
X47609905Y-132239343D01*
X47609905Y-131594816D01*
G37*
G36*
X49898419Y-131188336D02*
G01*
X49967666Y-131206924D01*
X50032489Y-131237794D01*
X50091334Y-131279328D01*
X50141137Y-131328850D01*
X50182607Y-131386996D01*
X50213449Y-131451175D01*
X50232049Y-131520045D01*
X50238386Y-131594816D01*
X50238386Y-132236320D01*
X50232078Y-132309747D01*
X50213508Y-132377807D01*
X50182607Y-132441667D01*
X50141150Y-132499432D01*
X50091351Y-132548591D01*
X50032489Y-132589770D01*
X49967697Y-132620326D01*
X49898445Y-132638736D01*
X49823570Y-132645000D01*
X49045962Y-132645000D01*
X49045962Y-132422891D01*
X49268070Y-132422891D01*
X49823570Y-132422891D01*
X49875169Y-132416622D01*
X49920404Y-132398315D01*
X49960865Y-132367479D01*
X49992432Y-132327602D01*
X50011035Y-132283366D01*
X50017376Y-132233206D01*
X50017376Y-131594816D01*
X50011020Y-131544035D01*
X49992398Y-131499348D01*
X49960865Y-131459170D01*
X49920358Y-131427951D01*
X49875126Y-131409447D01*
X49823570Y-131403116D01*
X49268070Y-131403116D01*
X49268070Y-132422891D01*
X49045962Y-132422891D01*
X49045962Y-131182015D01*
X49823570Y-131182015D01*
X49898419Y-131188336D01*
G37*
G36*
X51243689Y-131577597D02*
G01*
X51525515Y-132321225D01*
X51805326Y-131577597D01*
X52038975Y-131577597D01*
X51632035Y-132645000D01*
X51415880Y-132645000D01*
X51010040Y-131577597D01*
X51243689Y-131577597D01*
G37*
G36*
X52144029Y-131182015D02*
G01*
X52618196Y-131182015D01*
X52618196Y-132645000D01*
X52397096Y-132645000D01*
X52397096Y-131403116D01*
X52144029Y-131403116D01*
X52144029Y-131182015D01*
G37*
G36*
X52873094Y-132519062D02*
G01*
X52883045Y-132466708D01*
X52912845Y-132422800D01*
X52956836Y-132392926D01*
X53009199Y-132382957D01*
X53062377Y-132392868D01*
X53106010Y-132422250D01*
X53135392Y-132465884D01*
X53145303Y-132519062D01*
X53135388Y-132572319D01*
X53106010Y-132615965D01*
X53062377Y-132645347D01*
X53009199Y-132655258D01*
X52956829Y-132645310D01*
X52912845Y-132615507D01*
X52883047Y-132571510D01*
X52873094Y-132519062D01*
G37*
G36*
X54157010Y-131188356D02*
G01*
X54230016Y-131206973D01*
X54298251Y-131237794D01*
X54360532Y-131279459D01*
X54413034Y-131328984D01*
X54456612Y-131386905D01*
X54489197Y-131451316D01*
X54508764Y-131520195D01*
X54515414Y-131594816D01*
X54515414Y-132234214D01*
X54508781Y-132308228D01*
X54489232Y-132376811D01*
X54456612Y-132441209D01*
X54413069Y-132499164D01*
X54360885Y-132548526D01*
X54299259Y-132589862D01*
X54231703Y-132620286D01*
X54159041Y-132638710D01*
X54080081Y-132645000D01*
X53816757Y-132645000D01*
X53737790Y-132638720D01*
X53664938Y-132620303D01*
X53597030Y-132589862D01*
X53535079Y-132548520D01*
X53482560Y-132499155D01*
X53438669Y-132441209D01*
X53405785Y-132376784D01*
X53386090Y-132308204D01*
X53379410Y-132234214D01*
X53379410Y-131594816D01*
X53601427Y-131594816D01*
X53601427Y-132234214D01*
X53608342Y-132283206D01*
X53628901Y-132327060D01*
X53664533Y-132367387D01*
X53709304Y-132398103D01*
X53759503Y-132416545D01*
X53816757Y-132422891D01*
X54080081Y-132422891D01*
X54137379Y-132416529D01*
X54187382Y-132398077D01*
X54231756Y-132367387D01*
X54267108Y-132327093D01*
X54287531Y-132283237D01*
X54294405Y-132234214D01*
X54294405Y-131594816D01*
X54287442Y-131544537D01*
X54266830Y-131499876D01*
X54231298Y-131459170D01*
X54186525Y-131428185D01*
X54136013Y-131409545D01*
X54078066Y-131403116D01*
X53795233Y-131403116D01*
X53744325Y-131409409D01*
X53699222Y-131427878D01*
X53658396Y-131459170D01*
X53626588Y-131499380D01*
X53607826Y-131544066D01*
X53601427Y-131594816D01*
X53379410Y-131594816D01*
X53385794Y-131520068D01*
X53404541Y-131451201D01*
X53435647Y-131386996D01*
X53477435Y-131328823D01*
X53527399Y-131279301D01*
X53586222Y-131237794D01*
X53651104Y-131206921D01*
X53720383Y-131188335D01*
X53795233Y-131182015D01*
X54078066Y-131182015D01*
X54157010Y-131188356D01*
G37*
G36*
X44446716Y-128982015D02*
G01*
X44668733Y-128982015D01*
X44668733Y-130445000D01*
X44446716Y-130445000D01*
X44446716Y-128982015D01*
G37*
G36*
X44883697Y-129091558D02*
G01*
X44893645Y-129039189D01*
X44923448Y-128995204D01*
X44967439Y-128965330D01*
X45019802Y-128955362D01*
X45072227Y-128965338D01*
X45116155Y-128995204D01*
X45146029Y-129039196D01*
X45155998Y-129091558D01*
X45146029Y-129143921D01*
X45116155Y-129187912D01*
X45072234Y-129217707D01*
X45019802Y-129227663D01*
X44967432Y-129217714D01*
X44923448Y-129187912D01*
X44893645Y-129143928D01*
X44883697Y-129091558D01*
G37*
G36*
X44908335Y-129377597D02*
G01*
X45131360Y-129377597D01*
X45131360Y-130445000D01*
X44908335Y-130445000D01*
X44908335Y-129377597D01*
G37*
G36*
X45361162Y-129761639D02*
G01*
X45367080Y-129692207D01*
X45384455Y-129628257D01*
X45413277Y-129568656D01*
X45452062Y-129514629D01*
X45498470Y-129468537D01*
X45553136Y-129429804D01*
X45613444Y-129400898D01*
X45677803Y-129383508D01*
X45747309Y-129377597D01*
X46123382Y-129377597D01*
X46180944Y-129384813D01*
X46231925Y-129406010D01*
X46278080Y-129441986D01*
X46314056Y-129488140D01*
X46335252Y-129539122D01*
X46342468Y-129596683D01*
X46342468Y-130454342D01*
X46336556Y-130523847D01*
X46319164Y-130588174D01*
X46290261Y-130648423D01*
X46251464Y-130703074D01*
X46205052Y-130749485D01*
X46150402Y-130788283D01*
X46090095Y-130817192D01*
X46025766Y-130834581D01*
X45956320Y-130840490D01*
X45429763Y-130840490D01*
X45429763Y-130618473D01*
X45953206Y-130618473D01*
X45997607Y-130613070D01*
X46036599Y-130597280D01*
X46071542Y-130570662D01*
X46098891Y-130536304D01*
X46114977Y-130498312D01*
X46120451Y-130455349D01*
X46120451Y-129599614D01*
X45747309Y-129599614D01*
X45704256Y-129604973D01*
X45666066Y-129620716D01*
X45631447Y-129647424D01*
X45604537Y-129681758D01*
X45588620Y-129720074D01*
X45583178Y-129763745D01*
X45583178Y-130057844D01*
X45588569Y-130100822D01*
X45604443Y-130139140D01*
X45631447Y-130174073D01*
X45666138Y-130201386D01*
X45704322Y-130217437D01*
X45747309Y-130222891D01*
X46003306Y-130222891D01*
X46003306Y-130445000D01*
X45747309Y-130445000D01*
X45677799Y-130439098D01*
X45613439Y-130421737D01*
X45553136Y-130392884D01*
X45498497Y-130354072D01*
X45452087Y-130307804D01*
X45413277Y-130253483D01*
X45384435Y-130193473D01*
X45367069Y-130129301D01*
X45361162Y-130059859D01*
X45361162Y-129761639D01*
G37*
G36*
X46583353Y-128982015D02*
G01*
X46805369Y-128982015D01*
X46805369Y-129377597D01*
X47136471Y-129377597D01*
X47209323Y-129383525D01*
X47276548Y-129400920D01*
X47339254Y-129429713D01*
X47396376Y-129468627D01*
X47444640Y-129514918D01*
X47484792Y-129569114D01*
X47514840Y-129629187D01*
X47532884Y-129693341D01*
X47539014Y-129762738D01*
X47539014Y-130445000D01*
X47316997Y-130445000D01*
X47316997Y-129765760D01*
X47311139Y-129723838D01*
X47293598Y-129685526D01*
X47263050Y-129649531D01*
X47224721Y-129621640D01*
X47182955Y-129605195D01*
X47136471Y-129599614D01*
X46805369Y-129599614D01*
X46805369Y-130445000D01*
X46583353Y-130445000D01*
X46583353Y-128982015D01*
G37*
G36*
X47727875Y-129377597D02*
G01*
X47866177Y-129377597D01*
X47866177Y-128982015D01*
X48088286Y-128982015D01*
X48088286Y-129377597D01*
X48415174Y-129377597D01*
X48415174Y-129599614D01*
X48088286Y-129599614D01*
X48088286Y-130140826D01*
X48094746Y-130171790D01*
X48114572Y-130198620D01*
X48143364Y-130216783D01*
X48177587Y-130222891D01*
X48415174Y-130222891D01*
X48415174Y-130445000D01*
X48174473Y-130445000D01*
X48092960Y-130434667D01*
X48019867Y-130404150D01*
X47957010Y-130356291D01*
X47908126Y-130294515D01*
X47876764Y-130222269D01*
X47866177Y-130141833D01*
X47866177Y-129599614D01*
X47727875Y-129599614D01*
X47727875Y-129377597D01*
G37*
G36*
X48604218Y-129599797D02*
G01*
X48611770Y-129540969D01*
X48633941Y-129489141D01*
X48671629Y-129442444D01*
X48719823Y-129406305D01*
X48773205Y-129384903D01*
X48833562Y-129377597D01*
X49276222Y-129377597D01*
X49358620Y-129388224D01*
X49431927Y-129419546D01*
X49494656Y-129468582D01*
X49543576Y-129532295D01*
X49574929Y-129606444D01*
X49585525Y-129688915D01*
X49585525Y-129718682D01*
X49574932Y-129800129D01*
X49543576Y-129873288D01*
X49494739Y-129936116D01*
X49431927Y-129985029D01*
X49358625Y-130016281D01*
X49276222Y-130026886D01*
X48943380Y-130026886D01*
X48943380Y-129805877D01*
X49278237Y-129805877D01*
X49311308Y-129799459D01*
X49339236Y-129780140D01*
X49358169Y-129751651D01*
X49364516Y-129717583D01*
X49364516Y-129688915D01*
X49358122Y-129653996D01*
X49339236Y-129625443D01*
X49311301Y-129606052D01*
X49278237Y-129599614D01*
X48826235Y-129599614D01*
X48826235Y-130141833D01*
X48831947Y-130173059D01*
X48848949Y-130199169D01*
X48874226Y-130216979D01*
X48904270Y-130222891D01*
X49510695Y-130222891D01*
X49510695Y-130445000D01*
X48904270Y-130445000D01*
X48824723Y-130434688D01*
X48753145Y-130404150D01*
X48691887Y-130356264D01*
X48644518Y-130294424D01*
X48614387Y-130222490D01*
X48604218Y-130142841D01*
X48604218Y-129599797D01*
G37*
G36*
X49968559Y-129377597D02*
G01*
X50242233Y-130107944D01*
X50521952Y-129377597D01*
X50767050Y-129377597D01*
X50201200Y-130844611D01*
X49958300Y-130844611D01*
X50124355Y-130407264D01*
X49732803Y-129377597D01*
X49968559Y-129377597D01*
G37*
G36*
X50924037Y-129599797D02*
G01*
X50931589Y-129540969D01*
X50953759Y-129489141D01*
X50991448Y-129442444D01*
X51039642Y-129406305D01*
X51093024Y-129384903D01*
X51153381Y-129377597D01*
X51596040Y-129377597D01*
X51678439Y-129388224D01*
X51751745Y-129419546D01*
X51814475Y-129468582D01*
X51863395Y-129532295D01*
X51894747Y-129606444D01*
X51905343Y-129688915D01*
X51905343Y-129718682D01*
X51894750Y-129800129D01*
X51863395Y-129873288D01*
X51814558Y-129936116D01*
X51751745Y-129985029D01*
X51678444Y-130016281D01*
X51596040Y-130026886D01*
X51263198Y-130026886D01*
X51263198Y-129805877D01*
X51598055Y-129805877D01*
X51631126Y-129799459D01*
X51659055Y-129780140D01*
X51677988Y-129751651D01*
X51684334Y-129717583D01*
X51684334Y-129688915D01*
X51677941Y-129653996D01*
X51659055Y-129625443D01*
X51631119Y-129606052D01*
X51598055Y-129599614D01*
X51146053Y-129599614D01*
X51146053Y-130141833D01*
X51151766Y-130173059D01*
X51168768Y-130199169D01*
X51194044Y-130216979D01*
X51224089Y-130222891D01*
X51830513Y-130222891D01*
X51830513Y-130445000D01*
X51224089Y-130445000D01*
X51144542Y-130434688D01*
X51072964Y-130404150D01*
X51011705Y-130356264D01*
X50964337Y-130294424D01*
X50934206Y-130222490D01*
X50924037Y-130142841D01*
X50924037Y-129599797D01*
G37*
G36*
X52130841Y-130319062D02*
G01*
X52140792Y-130266708D01*
X52170591Y-130222800D01*
X52214582Y-130192926D01*
X52266945Y-130182957D01*
X52320123Y-130192868D01*
X52363757Y-130222250D01*
X52393138Y-130265884D01*
X52403049Y-130319062D01*
X52393134Y-130372319D01*
X52363757Y-130415965D01*
X52320123Y-130445347D01*
X52266945Y-130455258D01*
X52214575Y-130445310D01*
X52170591Y-130415507D01*
X52140793Y-130371510D01*
X52130841Y-130319062D01*
G37*
G36*
X52626898Y-129763745D02*
G01*
X52632960Y-129694372D01*
X52650818Y-129630054D01*
X52680570Y-129569664D01*
X52720399Y-129515032D01*
X52767987Y-129468577D01*
X52824002Y-129429713D01*
X52885688Y-129400901D01*
X52951753Y-129383517D01*
X53023304Y-129377597D01*
X53623592Y-129377597D01*
X53623592Y-129599614D01*
X53023304Y-129599614D01*
X52977500Y-129605125D01*
X52936946Y-129621271D01*
X52900297Y-129648524D01*
X52871530Y-129683719D01*
X52854653Y-129722666D01*
X52848914Y-129766768D01*
X52848914Y-130054730D01*
X52854590Y-130098888D01*
X52871293Y-130138028D01*
X52899748Y-130173524D01*
X52936165Y-130200982D01*
X52976878Y-130217300D01*
X53023304Y-130222891D01*
X53623592Y-130222891D01*
X53623592Y-130445000D01*
X53023304Y-130445000D01*
X52951775Y-130439032D01*
X52885714Y-130421500D01*
X52824002Y-130392426D01*
X52767998Y-130353213D01*
X52720406Y-130306424D01*
X52680570Y-130251468D01*
X52650804Y-130190726D01*
X52632952Y-130126189D01*
X52626898Y-130056745D01*
X52626898Y-129763745D01*
G37*
G36*
X53853485Y-128982015D02*
G01*
X54075502Y-128982015D01*
X54075502Y-129377597D01*
X54406604Y-129377597D01*
X54479456Y-129383525D01*
X54546680Y-129400920D01*
X54609386Y-129429713D01*
X54666508Y-129468627D01*
X54714772Y-129514918D01*
X54754925Y-129569114D01*
X54784973Y-129629187D01*
X54803016Y-129693341D01*
X54809147Y-129762738D01*
X54809147Y-130445000D01*
X54587130Y-130445000D01*
X54587130Y-129765760D01*
X54581272Y-129723838D01*
X54563730Y-129685526D01*
X54533183Y-129649531D01*
X54494854Y-129621640D01*
X54453088Y-129605195D01*
X54406604Y-129599614D01*
X54075502Y-129599614D01*
X54075502Y-130445000D01*
X53853485Y-130445000D01*
X53853485Y-128982015D01*
G37*
D12*
%TO.C,C105*%
X45859420Y-112740000D02*
X46140580Y-112740000D01*
X45859420Y-113760000D02*
X46140580Y-113760000D01*
%TO.C,D104*%
X37985000Y-116640000D02*
X37985000Y-117860000D01*
X37985000Y-117860000D02*
X39800000Y-117860000D01*
X39800000Y-116640000D02*
X37985000Y-116640000D01*
%TO.C,R111*%
X34730242Y-109902500D02*
X35204758Y-109902500D01*
X34730242Y-110947500D02*
X35204758Y-110947500D01*
%TO.C,R105*%
X52040000Y-114927064D02*
X52040000Y-110572936D01*
X55460000Y-114927064D02*
X55460000Y-110572936D01*
%TO.C,D102*%
X64200000Y-110610000D02*
X66015000Y-110610000D01*
X66015000Y-109390000D02*
X64200000Y-109390000D01*
X66015000Y-110610000D02*
X66015000Y-109390000D01*
%TO.C,D100*%
X31190000Y-105285000D02*
X31190000Y-107100000D01*
X32410000Y-105285000D02*
X31190000Y-105285000D01*
X32410000Y-107100000D02*
X32410000Y-105285000D01*
%TO.C,R108*%
X42727500Y-115987258D02*
X42727500Y-115512742D01*
X43772500Y-115987258D02*
X43772500Y-115512742D01*
%TO.C,C106*%
X46265000Y-116261252D02*
X46265000Y-115738748D01*
X47735000Y-116261252D02*
X47735000Y-115738748D01*
%TO.C,R110*%
X39152500Y-112047742D02*
X39152500Y-112522258D01*
X40197500Y-112047742D02*
X40197500Y-112522258D01*
%TO.C,R109*%
X37120000Y-112047742D02*
X37120000Y-112522258D01*
X38165000Y-112047742D02*
X38165000Y-112522258D01*
%TO.C,L100*%
X49325000Y-100735000D02*
X56725000Y-100735000D01*
X49325000Y-103035000D02*
X49325000Y-100735000D01*
X49325000Y-108135000D02*
X49325000Y-105835000D01*
X56725000Y-100735000D02*
X56725000Y-103035000D01*
X56725000Y-105835000D02*
X56725000Y-108135000D01*
X56725000Y-108135000D02*
X49325000Y-108135000D01*
%TO.C,C103*%
X41909420Y-107275000D02*
X42190580Y-107275000D01*
X41909420Y-108295000D02*
X42190580Y-108295000D01*
%TO.C,C104*%
X57765000Y-113988748D02*
X57765000Y-114511252D01*
X59235000Y-113988748D02*
X59235000Y-114511252D01*
%TO.C,R106*%
X44477500Y-115987258D02*
X44477500Y-115512742D01*
X45522500Y-115987258D02*
X45522500Y-115512742D01*
%TO.C,R103*%
X41970242Y-112512500D02*
X42444758Y-112512500D01*
X41970242Y-113557500D02*
X42444758Y-113557500D01*
%TO.C,J100*%
X30280000Y-97730000D02*
X39240000Y-97730000D01*
X30280000Y-104470000D02*
X30280000Y-97730000D01*
X39840000Y-97730000D02*
X41180000Y-97730000D01*
X41180000Y-97730000D02*
X41180000Y-104470000D01*
X41180000Y-98650000D02*
X30280000Y-98650000D01*
X41180000Y-99650000D02*
X30280000Y-99650000D01*
X41180000Y-102750000D02*
X30280000Y-102750000D01*
X41180000Y-104470000D02*
X30280000Y-104470000D01*
X39540000Y-97730000D02*
X39100000Y-97120000D01*
X39980000Y-97120000D01*
X39540000Y-97730000D01*
G36*
X39540000Y-97730000D02*
G01*
X39100000Y-97120000D01*
X39980000Y-97120000D01*
X39540000Y-97730000D01*
G37*
%TO.C,J103*%
X30350000Y-133910000D02*
X30350000Y-136570000D01*
X65970000Y-133910000D02*
X30350000Y-133910000D01*
X65970000Y-133910000D02*
X65970000Y-136570000D01*
X65970000Y-136570000D02*
X30350000Y-136570000D01*
X68570000Y-135240000D02*
X68570000Y-136570000D01*
X68570000Y-136570000D02*
X67240000Y-136570000D01*
%TO.C,J101*%
X62247500Y-111345000D02*
X68987500Y-111345000D01*
X62247500Y-117165000D02*
X62247500Y-111345000D01*
X63967500Y-117165000D02*
X63967500Y-111345000D01*
X67067500Y-117165000D02*
X67067500Y-111345000D01*
X68067500Y-117165000D02*
X68067500Y-111345000D01*
X68987500Y-111345000D02*
X68987500Y-115225000D01*
X68987500Y-115825000D02*
X68987500Y-117165000D01*
X68987500Y-117165000D02*
X62247500Y-117165000D01*
X69597500Y-115965000D02*
X68987500Y-115525000D01*
X69597500Y-115085000D01*
X69597500Y-115965000D01*
G36*
X69597500Y-115965000D02*
G01*
X68987500Y-115525000D01*
X69597500Y-115085000D01*
X69597500Y-115965000D01*
G37*
%TO.C,D101*%
X44100000Y-108460000D02*
X44100000Y-102650000D01*
X44100000Y-108460000D02*
X48400000Y-108460000D01*
X48400000Y-108460000D02*
X48400000Y-102650000D01*
%TO.C,C102*%
X49109420Y-109490000D02*
X49390580Y-109490000D01*
X49109420Y-110510000D02*
X49390580Y-110510000D01*
%TO.C,C100*%
X38090000Y-108211252D02*
X38090000Y-106788748D01*
X39910000Y-108211252D02*
X39910000Y-106788748D01*
%TO.C,R112*%
X34762742Y-111727500D02*
X35237258Y-111727500D01*
X34762742Y-112772500D02*
X35237258Y-112772500D01*
D13*
%TO.C,U100*%
X40842501Y-108835000D02*
X44342502Y-108835000D01*
D12*
%TO.C,J102*%
X30350000Y-118670000D02*
X30350000Y-121330000D01*
X65970000Y-118670000D02*
X30350000Y-118670000D01*
X65970000Y-118670000D02*
X65970000Y-121330000D01*
X65970000Y-121330000D02*
X30350000Y-121330000D01*
X68570000Y-120000000D02*
X68570000Y-121330000D01*
X68570000Y-121330000D02*
X67240000Y-121330000D01*
%TO.C,R104*%
X49012742Y-111102500D02*
X49487258Y-111102500D01*
X49012742Y-112147500D02*
X49487258Y-112147500D01*
D14*
%TO.C,G\u002A\u002A\u002A*%
G36*
X50027718Y-123134157D02*
G01*
X50543454Y-123217710D01*
X50942652Y-123341887D01*
X51398282Y-123534513D01*
X51874126Y-123777639D01*
X52333962Y-124053319D01*
X52602058Y-124237766D01*
X53108791Y-124608038D01*
X52852469Y-124626886D01*
X52703473Y-124625325D01*
X52560030Y-124587212D01*
X52386654Y-124498494D01*
X52157770Y-124351771D01*
X51756254Y-124095351D01*
X51403465Y-123902611D01*
X51054746Y-123751625D01*
X50672359Y-123622571D01*
X50205880Y-123521583D01*
X49690377Y-123477268D01*
X49180700Y-123491526D01*
X48769888Y-123556597D01*
X48424351Y-123665037D01*
X48023115Y-123829324D01*
X47611076Y-124028302D01*
X47233130Y-124240817D01*
X47020198Y-124381054D01*
X46790073Y-124531876D01*
X46608584Y-124611472D01*
X46433786Y-124637184D01*
X46400100Y-124637431D01*
X46141210Y-124635153D01*
X46331235Y-124473187D01*
X46576439Y-124283109D01*
X46888796Y-124067835D01*
X47229745Y-123851532D01*
X47560725Y-123658366D01*
X47843176Y-123512505D01*
X47914925Y-123480641D01*
X48619758Y-123246386D01*
X49328591Y-123130434D01*
X50027718Y-123134157D01*
G37*
G36*
X46578113Y-126433475D02*
G01*
X46755334Y-126502186D01*
X46973707Y-126639028D01*
X47020198Y-126671930D01*
X47349837Y-126881634D01*
X47743829Y-127092061D01*
X48157279Y-127282054D01*
X48545290Y-127430460D01*
X48769888Y-127496387D01*
X49226939Y-127565349D01*
X49739503Y-127574013D01*
X50252730Y-127524282D01*
X50672359Y-127430413D01*
X51060645Y-127299112D01*
X51409072Y-127147621D01*
X51762298Y-126954017D01*
X52157770Y-126701214D01*
X52393658Y-126550353D01*
X52565378Y-126463655D01*
X52708414Y-126427066D01*
X52852469Y-126426098D01*
X53108791Y-126444946D01*
X52602058Y-126815218D01*
X52171320Y-127102281D01*
X51701492Y-127368229D01*
X51228793Y-127595113D01*
X50789444Y-127764988D01*
X50543454Y-127835275D01*
X50019886Y-127914716D01*
X49457554Y-127926318D01*
X48909378Y-127871504D01*
X48516522Y-127780770D01*
X48246897Y-127693542D01*
X47988335Y-127602530D01*
X47794845Y-127526781D01*
X47788093Y-127523844D01*
X47599899Y-127426878D01*
X47344144Y-127276032D01*
X47054732Y-127093275D01*
X46765566Y-126900577D01*
X46510552Y-126719909D01*
X46331235Y-126579797D01*
X46141210Y-126417831D01*
X46400100Y-126415553D01*
X46578113Y-126433475D01*
G37*
G36*
X49763596Y-123619065D02*
G01*
X49941709Y-123641512D01*
X50123868Y-123698558D01*
X50342165Y-123797997D01*
X50572748Y-123924466D01*
X50791764Y-124062600D01*
X50975362Y-124197033D01*
X51099690Y-124312401D01*
X51140896Y-124393339D01*
X51133110Y-124408989D01*
X51148686Y-124458647D01*
X51199112Y-124486501D01*
X51270185Y-124546074D01*
X51267781Y-124583005D01*
X51280267Y-124635827D01*
X51303554Y-124639709D01*
X51344860Y-124678294D01*
X51335225Y-124703051D01*
X51342348Y-124761325D01*
X51366896Y-124766393D01*
X51409664Y-124803811D01*
X51401271Y-124825357D01*
X51408594Y-124907036D01*
X51426438Y-124922398D01*
X51463100Y-125005662D01*
X51454823Y-125047051D01*
X51463201Y-125148652D01*
X51489261Y-125175444D01*
X51563959Y-125259632D01*
X51531808Y-125328012D01*
X51412167Y-125353829D01*
X51363349Y-125349458D01*
X51162085Y-125365963D01*
X51023935Y-125458060D01*
X50878093Y-125595072D01*
X50797238Y-125291580D01*
X50697616Y-124994099D01*
X50587657Y-124796914D01*
X50474673Y-124706759D01*
X50365975Y-124730371D01*
X50291998Y-124826165D01*
X50251593Y-124944450D01*
X50202714Y-125149436D01*
X50154306Y-125402346D01*
X50142221Y-125475417D01*
X50105083Y-125694780D01*
X50074449Y-125827261D01*
X50046850Y-125866188D01*
X50018817Y-125804888D01*
X49986883Y-125636686D01*
X49947578Y-125354912D01*
X49905692Y-125020377D01*
X49855638Y-124653802D01*
X49806905Y-124397781D01*
X49754509Y-124236344D01*
X49693466Y-124153518D01*
X49628797Y-124132976D01*
X49551566Y-124156757D01*
X49487056Y-124237987D01*
X49430778Y-124391496D01*
X49378241Y-124632117D01*
X49324953Y-124974678D01*
X49287756Y-125259282D01*
X49179662Y-126126622D01*
X49099432Y-125571724D01*
X49039065Y-125206042D01*
X48977286Y-124952472D01*
X48908055Y-124796527D01*
X48825329Y-124723722D01*
X48742564Y-124715986D01*
X48654407Y-124760970D01*
X48576854Y-124883473D01*
X48495168Y-125107018D01*
X48492737Y-125114772D01*
X48428035Y-125315809D01*
X48377551Y-125461799D01*
X48354314Y-125517118D01*
X48295022Y-125501659D01*
X48189816Y-125437941D01*
X48027511Y-125360357D01*
X47900682Y-125336467D01*
X47776635Y-125297592D01*
X47745723Y-125176135D01*
X47755580Y-125114772D01*
X47783045Y-124991927D01*
X47783904Y-124988088D01*
X47867756Y-124771922D01*
X48015972Y-124523473D01*
X48196550Y-124292688D01*
X48289382Y-124199159D01*
X48446220Y-124055950D01*
X48571926Y-123939128D01*
X48614385Y-123898461D01*
X48699171Y-123852287D01*
X48730677Y-123861512D01*
X48766433Y-123851407D01*
X48769888Y-123823087D01*
X48807045Y-123775400D01*
X48833230Y-123784597D01*
X48891504Y-123777473D01*
X48896571Y-123752926D01*
X48933990Y-123710157D01*
X48955536Y-123718550D01*
X49036478Y-123713551D01*
X49049394Y-123698535D01*
X49136387Y-123655405D01*
X49310472Y-123626118D01*
X49532569Y-123613172D01*
X49763596Y-123619065D01*
G37*
G36*
X49725922Y-125763407D02*
G01*
X49770438Y-126078659D01*
X49812882Y-126349815D01*
X49848971Y-126551444D01*
X49874420Y-126658112D01*
X49877986Y-126666025D01*
X49977472Y-126728924D01*
X50105106Y-126708155D01*
X50206546Y-126616201D01*
X50220024Y-126587465D01*
X50253496Y-126461006D01*
X50296230Y-126247829D01*
X50340684Y-125986779D01*
X50355338Y-125890707D01*
X50397282Y-125644366D01*
X50440254Y-125454284D01*
X50477355Y-125348793D01*
X50490311Y-125336467D01*
X50537071Y-125388123D01*
X50543454Y-125434625D01*
X50571347Y-125557383D01*
X50638590Y-125716744D01*
X50640093Y-125719663D01*
X50769869Y-125868298D01*
X50927977Y-125906571D01*
X51082554Y-125832112D01*
X51145099Y-125757232D01*
X51261091Y-125646009D01*
X51399926Y-125637932D01*
X51523359Y-125699045D01*
X51554897Y-125793625D01*
X51489261Y-125877540D01*
X51447151Y-125964174D01*
X51454823Y-126005933D01*
X51449871Y-126105414D01*
X51426438Y-126130586D01*
X51392847Y-126206668D01*
X51401271Y-126227627D01*
X51390240Y-126282493D01*
X51366896Y-126286592D01*
X51325590Y-126325177D01*
X51335225Y-126349934D01*
X51328101Y-126408208D01*
X51303554Y-126413275D01*
X51259918Y-126449413D01*
X51267781Y-126469980D01*
X51249498Y-126535984D01*
X51199112Y-126566483D01*
X51129441Y-126616939D01*
X51133110Y-126643995D01*
X51113734Y-126703973D01*
X51012264Y-126809949D01*
X50854921Y-126942219D01*
X50667925Y-127081081D01*
X50477496Y-127206831D01*
X50309855Y-127299764D01*
X50210911Y-127336992D01*
X50147569Y-127360761D01*
X50080656Y-127382097D01*
X50005050Y-127398715D01*
X49848414Y-127429662D01*
X49687982Y-127461696D01*
X49544227Y-127479067D01*
X49465004Y-127467325D01*
X49464859Y-127467182D01*
X49384161Y-127432623D01*
X49232868Y-127392194D01*
X49065609Y-127359190D01*
X48975748Y-127348130D01*
X48901960Y-127306603D01*
X48896571Y-127285763D01*
X48857140Y-127257815D01*
X48833230Y-127268388D01*
X48775588Y-127258469D01*
X48769888Y-127229898D01*
X48746726Y-127182265D01*
X48730677Y-127191473D01*
X48659988Y-127188248D01*
X48614385Y-127154523D01*
X48524533Y-127069491D01*
X48380601Y-126936839D01*
X48289382Y-126853826D01*
X48089775Y-126636732D01*
X47927752Y-126392022D01*
X47812806Y-126144759D01*
X47754431Y-125920010D01*
X47762121Y-125742838D01*
X47831785Y-125645746D01*
X47937106Y-125651373D01*
X48081488Y-125756196D01*
X48266224Y-125886721D01*
X48421880Y-125894744D01*
X48550431Y-125779575D01*
X48648281Y-125558489D01*
X48695417Y-125416193D01*
X48731706Y-125340783D01*
X48762784Y-125343227D01*
X48794287Y-125434494D01*
X48831852Y-125625553D01*
X48881116Y-125927373D01*
X48900214Y-126048776D01*
X48963839Y-126381856D01*
X49034158Y-126597395D01*
X49116238Y-126704526D01*
X49215147Y-126712382D01*
X49257076Y-126691924D01*
X49315360Y-126625860D01*
X49369147Y-126493689D01*
X49421410Y-126282093D01*
X49475118Y-125977758D01*
X49533243Y-125567366D01*
X49566549Y-125304797D01*
X49613386Y-124924747D01*
X49725922Y-125763407D01*
G37*
D12*
%TO.C,R107*%
X49512742Y-114977500D02*
X49987258Y-114977500D01*
X49512742Y-116022500D02*
X49987258Y-116022500D01*
%TO.C,D103*%
X49385000Y-116640000D02*
X49385000Y-117860000D01*
X49385000Y-117860000D02*
X51200000Y-117860000D01*
X51200000Y-116640000D02*
X49385000Y-116640000D01*
%TD*%
M02*
