M48
; DRILL file {KiCad 9.0.7-9.0.7~ubuntu24.04.1} date 2026-02-03T02:14:54+0100
; FORMAT={-:-/ absolute / metric / decimal}
; #@! TF.CreationDate,2026-02-03T02:14:54+01:00
; #@! TF.GenerationSoftware,Kicad,Pcbnew,9.0.7-9.0.7~ubuntu24.04.1
; #@! TF.FileFunction,MixedPlating,1,2
FMAT,2
METRIC
; #@! TA.AperFunction,Plated,PTH,ViaDrill
T1C0.400
; #@! TA.AperFunction,Plated,PTH,ViaDrill
T2C0.800
; #@! TA.AperFunction,Plated,PTH,ComponentDrill
T3C1.000
; #@! TA.AperFunction,Plated,PTH,ComponentDrill
T4C1.200
; #@! TA.AperFunction,NonPlated,NPTH,ComponentDrill
T5C3.200
%
G90
G05
T1
X31.8Y-108.05
X33.1Y-112.3
X39.7Y-114.5
X40.75Y-117.25
X41.85Y-114.95
X43.85Y-112.15
X46.952Y-109.452
X48.0Y-113.175
X52.0Y-117.25
X63.25Y-110.0
T2
X39.3Y-103.7
X46.3Y-99.675
X56.7Y-109.75
X59.625Y-117.5
X64.7Y-132.9
T3
X31.68Y-120.0
X31.68Y-135.24
X34.22Y-120.0
X34.22Y-135.24
X36.76Y-120.0
X36.76Y-135.24
X39.3Y-120.0
X39.3Y-135.24
X41.84Y-120.0
X41.84Y-135.24
X44.38Y-120.0
X44.38Y-135.24
X46.92Y-120.0
X46.92Y-135.24
X49.46Y-120.0
X49.46Y-135.24
X52.0Y-120.0
X52.0Y-135.24
X54.54Y-120.0
X54.54Y-135.24
X57.08Y-120.0
X57.08Y-135.24
X59.62Y-120.0
X59.62Y-135.24
X62.16Y-120.0
X62.16Y-135.24
X64.7Y-120.0
X64.7Y-135.24
X67.24Y-120.0
X67.24Y-135.24
T4
X31.92Y-101.25
X34.46Y-101.25
X37.0Y-101.25
X39.54Y-101.25
X65.468Y-112.985
X65.468Y-115.525
T5
X35.0Y-128.0
X64.0Y-102.25
X64.0Y-128.0
M30
